<?xml version="1.0" standalone="no"?><!DOCTYPE svg PUBLIC "-//W3C//DTD SVG 1.1//EN" "http://www.w3.org/Graphics/SVG/1.1/DTD/svg11.dtd"><svg class="icon" width="16px" height="16.00px" viewBox="0 0 1024 1024" version="1.1" xmlns="http://www.w3.org/2000/svg"><path d="M89.85 197.55m-26.03 0a26.03 26.03 0 1 0 52.06 0 26.03 26.03 0 1 0-52.06 0Z" fill="#4D73B6" opacity=".8" /><path d="M135.4 99.52m-26.03 0a26.03 26.03 0 1 0 52.06 0 26.03 26.03 0 1 0-52.06 0Z" fill="#44BDDC" opacity=".8" /><path d="M934.15 145.07m-26.03 0a26.03 26.03 0 1 0 52.06 0 26.03 26.03 0 1 0-52.06 0Z" fill="#4D73B6" opacity=".8" /><path d="M612.93 189.8V194.82h0.51c2.42 15.26 15.54 26.96 31.48 26.96h196.21c15.94 0 29.05-11.7 31.48-26.96h0.5v-15.45c0-17.67-14.31-31.98-31.98-31.98H644.91c-17.66 0-31.99 14.32-31.99 31.98v10.43zM619.43 411.04V416.06h0.51c2.42 15.26 15.54 26.96 31.48 26.96h196.21c15.94 0 29.05-11.7 31.48-26.96h0.5v-15.45c0-17.67-14.31-31.98-31.98-31.98H651.42c-17.66 0-31.99 14.32-31.99 31.98v10.43z" fill="#44BDDC" opacity=".8" /><path d="M632.26 430.79c0.01 0 0.01 0.01 0.03 0.02l3.25 3.78 0.39-0.33c11.79 10 29.36 10.31 41.45-0.09l178.53-217.51c12.09-10.39 14.4-27.81 6.28-40.97l0.38-0.32-3.27-3.81-5.83-6.77-0.97-1.13c-11.52-13.4-31.7-14.91-45.1-3.39L628.86 377.78c-13.39 11.51-14.91 31.72-3.39 45.11l0.97 1.13 5.82 6.77z" fill="#44BDDC" opacity=".8" /><path d="M511.94 950.5c-233.06 0-422.66-189.65-422.66-422.75 0-190.41 128.42-358.05 312.31-407.65 13.22-3.52 27.25 1.33 35.41 12.34 8.14 11.01 8.71 25.88 1.42 37.47-31.43 50.03-48.04 107.45-48.04 166.05 0 172.59 140.48 313.02 313.17 313.02 58.73 0 116.22-16.67 166.28-48.23a33.279 33.279 0 0 1 37.49 1.37 33.281 33.281 0 0 1 12.37 35.4C870.16 821.8 702.49 950.5 511.94 950.5zM344.17 213.93C230.3 274.77 155.8 394.66 155.8 527.76c0 196.42 159.76 356.22 356.13 356.22 133.25 0 253.21-74.72 314-188.92a376.765 376.765 0 0 1-122.39 20.44c-209.36 0-379.7-170.26-379.7-379.53 0.01-41.53 6.87-82.76 20.33-122.04z m0 0" fill="#3D6AB2" opacity=".8" /></svg>